<svg id="visual" viewBox="0 0 720 240" width="720" height="240" xmlns="http://www.w3.org/2000/svg" xmlns:xlink="http://www.w3.org/1999/xlink" version="1.1"><rect x="0" y="0" width="720" height="240" fill="#272727"></rect><path d="M0 55L65 49L131 47L196 81L262 71L327 59L393 67L458 96L524 95L589 63L655 84L720 41L720 241L655 241L589 241L524 241L458 241L393 241L327 241L262 241L196 241L131 241L65 241L0 241Z" fill="#ff3e3e"></path><path d="M0 113L65 89L131 112L196 106L262 95L327 121L393 131L458 99L524 129L589 90L655 110L720 85L720 241L655 241L589 241L524 241L458 241L393 241L327 241L262 241L196 241L131 241L65 241L0 241Z" fill="#d53028"></path><path d="M0 151L65 154L131 137L196 140L262 157L327 172L393 150L458 171L524 133L589 146L655 158L720 131L720 241L655 241L589 241L524 241L458 241L393 241L327 241L262 241L196 241L131 241L65 241L0 241Z" fill="#ad2214"></path><path d="M0 191L65 175L131 204L196 208L262 185L327 185L393 186L458 196L524 176L589 200L655 198L720 187L720 241L655 241L589 241L524 241L458 241L393 241L327 241L262 241L196 241L131 241L65 241L0 241Z" fill="#871400"></path></svg>